<svg width="54" height="36" viewBox="0 0 54 36" fill="none" xmlns="http://www.w3.org/2000/svg">
<path d="M48.519 26.5183C45.9 26.5183 43.776 28.6423 43.776 31.2613C43.776 33.8803 45.9 36.0043 48.519 36.0043C51.138 36.0043 53.262 33.8803 53.262 31.2613C53.262 28.6423 51.138 26.5183 48.519 26.5183ZM38.754 0.292311L20.322 16.7083L1.899 0.292311C1.161 -0.364689 0 0.157311 0 1.14731V34.9153C0 35.5183 0.485999 36.0043 1.089 36.0043H8.496C9.099 36.0043 9.585 35.5183 9.585 34.9153V19.9663L19.161 28.4893C19.836 29.0833 20.844 29.0833 21.519 28.4893L31.095 19.9663V34.9153C31.095 35.5183 31.581 36.0043 32.184 36.0043H39.591C40.194 36.0043 40.68 35.5183 40.68 34.9153V1.14731C40.662 0.166311 39.492 -0.355689 38.754 0.292311Z" fill="white"/>
</svg>
