<svg width="36" height="36" viewBox="0 0 36 36" fill="none" xmlns="http://www.w3.org/2000/svg">
<g clip-path="url(#clip0_1_307)">
<path d="M23.9 10.8C23.2 10.8 22.6 11.4 22.6 12.1C22.6 12.8 23.2 13.4 23.9 13.4C24.6 13.4 25.2 12.8 25.2 12.1C25.2 11.4 24.6 10.8 23.9 10.8ZM18 21.7C16 21.7 14.3 20.1 14.3 18C14.3 16 15.9 14.3 18 14.3C20 14.3 21.7 15.9 21.7 18C21.7 20 20 21.7 18 21.7ZM18 12.4C14.9 12.4 12.4 14.9 12.4 18C12.4 21.1 14.9 23.6 18 23.6C21.1 23.6 23.6 21.1 23.6 18C23.6 14.9 21.1 12.4 18 12.4ZM27 22.4C27 23.5 26.8 24.1 26.6 24.4C26.4 24.9 26.2 25.3 25.8 25.7C25.4 26.1 25 26.3 24.5 26.5C24.1 26.7 23.5 26.8 22.5 26.9C21.3 27 20.9 27 18 27C15.1 27 14.7 27 13.6 26.9C12.5 26.9 11.9 26.7 11.6 26.5C11.1 26.3 10.7 26.1 10.3 25.7C9.9 25.3 9.7 24.9 9.5 24.4C9.4 24 9.2 23.4 9.1 22.4C9 21.3 9 20.9 9 18C9 15.1 9 14.7 9.1 13.6C9.1 12.5 9.3 11.9 9.5 11.6C9.7 11.1 9.9 10.7 10.3 10.3C10.7 9.9 11.1 9.7 11.6 9.5C12 9.3 12.6 9.2 13.6 9.1C14.7 9 15.1 9 18 9C20.9 9 21.3 9 22.4 9.1C23.5 9.1 24.1 9.3 24.4 9.5C24.9 9.7 25.3 9.9 25.7 10.3C26.1 10.7 26.3 11.1 26.5 11.6C26.7 12 26.8 12.6 26.9 13.6C27 14.7 27 15.1 27 18V22.4ZM28.9 13.5C28.8 12.3 28.7 11.5 28.4 10.8C28.1 10.1 27.7 9.5 27.1 8.9C26.5 8.3 25.9 7.9 25.2 7.6C24.5 7.3 23.7 7.1 22.5 7.1C21.4 7 21 7 18 7C15 7 14.6 7 13.5 7.1C12.3 7.2 11.5 7.3 10.8 7.6C10.1 7.9 9.5 8.3 8.9 8.9C8.3 9.5 7.9 10.1 7.6 10.8C7.3 11.5 7.1 12.3 7.1 13.5C7 14.6 7 15 7 18C7 21 7 21.4 7.1 22.5C7.2 23.7 7.3 24.5 7.6 25.2C7.9 25.9 8.3 26.5 8.9 27.1C9.5 27.7 10.1 28.1 10.8 28.4C11.5 28.7 12.3 28.9 13.5 28.9C14.6 29 15 29 18 29C21 29 21.4 29 22.5 28.9C23.7 28.8 24.5 28.7 25.2 28.4C25.9 28.1 26.5 27.7 27.1 27.1C27.7 26.5 28.1 25.9 28.4 25.2C28.7 24.5 28.9 23.7 28.9 22.5C29 21.4 29 21 29 18C29 15 29 14.6 28.9 13.5Z" fill="white"/>
</g>
<defs>
<clipPath id="clip0_1_307">
<rect width="36" height="36" fill="white"/>
</clipPath>
</defs>
</svg>
