<svg width="36" height="36" viewBox="0 0 36 36" fill="none" xmlns="http://www.w3.org/2000/svg">
<g clip-path="url(#clip0_1_313)">
<path d="M27.5 12.3C26.8 12.6 26 12.8 25.2 12.9C26 12.4 26.6 11.6 26.9 10.7C26.1 11.2 25.3 11.5 24.4 11.7C23.7 10.9 22.6 10.5 21.5 10.5C19.3 10.5 17.5 12.3 17.5 14.5C17.5 14.8 17.5 15.1 17.6 15.4C14.3 15.2 11.4 13.7 9.39999 11.3C9.09999 11.9 8.89999 12.6 8.89999 13.3C8.89999 14.7 9.59999 15.9 10.7 16.6C10.1 16.6 9.39999 16.4 8.89999 16.1C8.89999 18 10.3 19.6 12.1 20C11.8 20.1 11.4 20.1 11.1 20.1C10.8 20.1 10.6 20.1 10.4 20C10.9 21.6 12.4 22.7 14.1 22.7C12.7 23.8 11 24.4 9.19999 24.4C8.89999 24.4 8.59999 24.4 8.29999 24.3C10.1 25.4 12.1 26.1 14.4 26.1C21.7 26.1 25.7 20.1 25.7 14.8V14.3C26.3 13.8 26.9 13.1 27.5 12.3Z" fill="white"/>
</g>
<defs>
<clipPath id="clip0_1_313">
<rect width="36" height="36" fill="white"/>
</clipPath>
</defs>
</svg>
