<svg width="120" height="120" viewBox="0 0 120 120" fill="none" xmlns="http://www.w3.org/2000/svg">
<path d="M60 0C26.868 0 0 26.868 0 60C0 93.132 26.868 120 60 120C93.132 120 120 93.132 120 60C120 26.868 93.132 0 60 0ZM60 117.6C28.236 117.6 2.4 91.764 2.4 60C2.4 28.236 28.236 2.4 60 2.4C91.764 2.4 117.6 28.236 117.6 60C117.6 91.764 91.764 117.6 60 117.6ZM44.4 88.8C39.096 88.8 34.8 93.096 34.8 98.4C34.8 103.704 39.096 108 44.4 108C49.704 108 54 103.704 54 98.4C54 93.096 49.704 88.8 44.4 88.8ZM44.4 105.6C40.428 105.6 37.2 102.372 37.2 98.4C37.2 94.428 40.428 91.2 44.4 91.2C48.372 91.2 51.6 94.428 51.6 98.4C51.6 102.372 48.372 105.6 44.4 105.6ZM27.492 57L36.24 48.252L34.548 46.56L25.8 55.308L17.052 46.56L15.36 48.252L24.108 57L15.36 65.748L17.052 67.44L25.8 58.692L34.548 67.44L36.24 65.748L27.492 57ZM50.652 35.052L59.4 26.304L68.148 35.052L69.84 33.36L61.092 24.612L69.84 15.864L68.148 14.172L59.4 22.92L50.652 14.172L48.96 15.864L57.708 24.612L48.96 33.36L50.652 35.052ZM93.348 72.948L84.6 81.696L75.852 72.948L74.16 74.64L82.908 83.388L74.16 92.136L75.852 93.828L84.6 85.08L93.348 93.828L95.04 92.136L86.292 83.388L95.04 74.64L93.348 72.948ZM87.612 31.44L89.1 40.608C78.06 41.988 69.48 46.62 64.032 50.496C62.328 48.948 60.084 48 57.6 48C52.296 48 48 52.296 48 57.6C48 62.904 52.296 67.2 57.6 67.2C62.904 67.2 67.2 62.904 67.2 57.6C67.2 55.668 66.624 53.868 65.64 52.356C70.896 48.672 79.116 44.28 89.496 42.984L90.948 51.96L107.052 38.82L87.612 31.44ZM57.6 64.8C53.628 64.8 50.4 61.572 50.4 57.6C50.4 53.628 53.628 50.4 57.6 50.4C61.572 50.4 64.8 53.628 64.8 57.6C64.8 61.572 61.572 64.8 57.6 64.8ZM90.648 35.16L102.312 39.588L92.652 47.472L90.648 35.16ZM46.2 82.5L43.848 82.032C43.68 82.848 43.536 83.7 43.404 84.552L45.78 84.9C45.912 84.084 46.044 83.28 46.2 82.5ZM48.204 75.468L45.96 74.628C45.672 75.408 45.384 76.224 45.132 77.052L47.424 77.772C47.664 76.98 47.928 76.212 48.204 75.468ZM51.3 68.844L49.212 67.656C48.804 68.376 48.396 69.132 48 69.924L50.148 71.004C50.52 70.248 50.916 69.528 51.3 68.844Z" fill="white"/>
</svg>
