<svg width="120" height="120" viewBox="0 0 120 120" fill="none" xmlns="http://www.w3.org/2000/svg">
<path d="M60 0C26.868 0 0 26.868 0 60C0 93.132 26.868 120 60 120C93.132 120 120 93.132 120 60C120 26.868 93.132 0 60 0ZM60 117.6C28.236 117.6 2.4 91.764 2.4 60C2.4 28.236 28.236 2.4 60 2.4C91.764 2.4 117.6 28.236 117.6 60C117.6 91.764 91.764 117.6 60 117.6ZM91.2 57.6H98.4V56.4H91.2V57.6ZM28.8 56.4H21.6V57.6H28.8V56.4ZM93.552 38.316L92.952 37.272L86.712 40.872L87.312 41.916L93.552 38.316ZM26.448 75.684L27.048 76.728L33.288 73.128L32.688 72.084L26.448 75.684ZM79.716 24.048L78.672 23.448L75.072 29.688L76.116 30.288L79.716 24.048ZM60.6 18.6H59.4V25.8H60.6V18.6ZM44.916 29.676L41.316 23.436L40.272 24.036L43.872 30.276L44.916 29.676ZM26.448 38.316L32.688 41.916L33.288 40.872L27.048 37.272L26.448 38.316ZM86.724 73.116L92.964 76.716L93.564 75.672L87.324 72.072L86.724 73.116ZM60 31.2C46.08 31.2 34.8 42.48 34.8 56.4C34.8 65.964 40.152 74.256 48 78.516V94.092L53.508 99.6H66.504L72 94.092V78.516C79.848 74.256 85.2 65.964 85.2 56.4C85.2 42.48 73.92 31.2 60 31.2ZM65.508 97.2H54.504L50.904 93.6H69.108L65.508 97.2ZM69.6 92.4H50.4V88.8H69.6V92.4ZM69.6 87.6H50.4V84H69.6V87.6ZM69.6 82.8H50.4V79.2H69.6V82.8ZM56.4 64.2C56.4 65.22 56.796 66.084 57.564 66.696C58.212 67.212 59.076 67.5 60 67.5C61.788 67.5 63.6 66.372 63.6 64.2C63.6 62.916 62.58 61.62 60.996 60.324C63.06 58.896 65.736 57.444 68.124 56.148C68.556 55.908 68.988 55.68 69.408 55.452C68.16 62.784 66.648 73.332 66.168 76.788H53.832C53.34 73.332 51.84 62.784 50.592 55.452C51.012 55.68 51.444 55.908 51.876 56.148C54.264 57.444 56.94 58.896 59.004 60.324C57.42 61.62 56.4 62.916 56.4 64.2ZM60 61.056C61.452 62.172 62.4 63.252 62.4 64.2C62.4 65.652 61.2 66.3 60 66.3C58.8 66.3 57.6 65.652 57.6 64.2C57.6 63.252 58.548 62.172 60 61.056ZM70.104 76.8H67.368C67.896 73.044 69.504 61.884 70.74 54.72C73.86 52.98 76.284 51.42 76.764 49.992C77.076 49.044 77.064 48.156 76.704 47.412C76.38 46.728 75.792 46.224 75.06 45.984C73.572 45.48 71.568 46.164 70.824 48.408C70.536 49.26 70.128 51.312 69.66 53.94C68.952 54.324 68.244 54.72 67.548 55.092C64.836 56.556 62.088 58.056 60 59.556C57.912 58.056 55.152 56.556 52.452 55.092C51.756 54.72 51.036 54.324 50.34 53.94C49.872 51.3 49.464 49.26 49.176 48.408C48.432 46.164 46.44 45.48 44.94 45.984C44.208 46.224 43.62 46.74 43.296 47.412C42.948 48.156 42.924 49.044 43.236 49.992C43.716 51.42 46.128 52.98 49.26 54.72C50.496 61.884 52.104 73.044 52.632 76.8H49.896C42.384 73.068 37.2 65.34 37.2 56.4C37.2 43.824 47.424 33.6 60 33.6C72.576 33.6 82.8 43.824 82.8 56.4C82.8 65.34 77.616 73.068 70.104 76.8ZM71.028 53.184C71.412 51.084 71.736 49.488 71.976 48.792C72.384 47.568 73.26 47.028 74.1 47.028C74.304 47.028 74.508 47.064 74.7 47.124C75.12 47.268 75.456 47.556 75.636 47.94C75.852 48.396 75.852 48.972 75.636 49.62C75.324 50.532 73.368 51.84 71.028 53.184ZM48.972 53.184C46.632 51.84 44.676 50.532 44.364 49.608C44.148 48.96 44.148 48.384 44.364 47.928C44.544 47.544 44.88 47.256 45.3 47.112C45.492 47.052 45.696 47.016 45.9 47.016C46.728 47.016 47.616 47.556 48.024 48.78C48.264 49.5 48.6 51.084 48.972 53.184Z" fill="white"/>
</svg>
