<svg width="120" height="120" viewBox="0 0 120 120" fill="none" xmlns="http://www.w3.org/2000/svg">
<path d="M60 0C26.868 0 0 26.868 0 60C0 93.132 26.868 120 60 120C93.132 120 120 93.132 120 60C120 26.868 93.132 0 60 0ZM60 117.6C28.236 117.6 2.4 91.764 2.4 60C2.4 28.236 28.236 2.4 60 2.4C91.764 2.4 117.6 28.236 117.6 60C117.6 91.764 91.764 117.6 60 117.6ZM37.2 28.8H39.6V27.6H37.2V28.8ZM54 27.6H51.6V28.8H54V27.6ZM61.2 27.6H58.8V28.8H61.2V27.6ZM44.4 28.8H46.8V27.6H44.4V28.8ZM68.4 27.6H66V28.8H68.4V27.6ZM37.2 86.4H39.6V85.2H37.2V86.4ZM44.4 86.4H46.8V85.2H44.4V86.4ZM51.6 86.4H54V85.2H51.6V86.4ZM77.892 64.236C78.444 51.432 77.28 37.404 74.4 28.608V20.4H28.8V28.608C23.952 43.392 23.952 72.996 28.8 86.616V94.8H58.572C58.908 95.652 59.22 96.432 59.496 97.068C61.464 101.652 66.768 103.8 76.2 103.8C85.632 103.8 90.936 101.664 92.904 97.068C94.704 92.868 98.472 81.456 98.604 81.048L98.712 80.772C101.172 79.116 102.6 77.148 102.6 74.988C102.6 69.072 92.088 64.572 77.892 64.236ZM31.2 92.4V86.4H32.4V85.2H30.864C26.436 71.88 26.52 43.032 31.14 29.184L31.2 28.992V28.8H32.4V27.6H31.2V22.8H72V28.992L72.06 29.172C74.868 37.596 75.996 51.552 75.456 64.212C60.78 64.368 49.8 68.94 49.8 75C49.8 77.076 51.108 78.972 53.4 80.58L54.048 82.356C54.156 82.668 55.98 87.9 57.66 92.4H31.2ZM90.696 96.132C89.148 99.732 84.552 101.4 76.2 101.4C67.848 101.4 63.24 99.72 61.704 96.132C60.84 94.104 59.52 90.564 58.404 87.468C61.728 89.208 67.752 90.6 76.2 90.6C84.552 90.6 90.528 89.244 93.876 87.528C92.76 90.756 91.512 94.236 90.696 96.132ZM94.476 85.788C91.728 87.708 85.176 89.4 76.2 89.4C67.056 89.4 60.42 87.636 57.768 85.68C57.264 84.276 56.856 83.1 56.592 82.356C61.344 84.492 68.244 85.788 76.2 85.788C84.048 85.788 90.864 84.516 95.616 82.44C95.304 83.376 94.908 84.528 94.476 85.788ZM76.2 83.4C62.052 83.4 52.2 78.972 52.2 75C52.2 71.028 62.052 66.6 76.2 66.6C90.348 66.6 100.2 71.028 100.2 75C100.2 78.972 90.348 83.4 76.2 83.4Z" fill="white"/>
</svg>
