<svg width="120" height="120" viewBox="0 0 120 120" fill="none" xmlns="http://www.w3.org/2000/svg">
<g clip-path="url(#clip0_1_193)">
<path d="M60 0C26.868 0 0 26.868 0 60C0 93.132 26.868 120 60 120C93.132 120 120 93.132 120 60C120 26.868 93.132 0 60 0ZM60 117.6C28.236 117.6 2.4 91.764 2.4 60C2.4 28.236 28.236 2.4 60 2.4C91.764 2.4 117.6 28.236 117.6 60C117.6 91.764 91.764 117.6 60 117.6ZM93 35.94V30H83.4V34.512L81.06 29.844C79.632 26.976 76.752 25.2 73.548 25.2H63.252C60.048 25.2 57.168 26.976 55.74 29.844L53.256 34.8H31.2C26.568 34.8 22.8 38.568 22.8 43.2V76.8C22.8 81.432 26.568 85.2 31.2 85.2H88.8C93.432 85.2 97.2 81.432 97.2 76.8V43.2C97.2 40.104 95.508 37.392 93 35.94ZM85.8 32.4H90.6V35.004C90.024 34.872 89.424 34.8 88.8 34.8H85.8V32.4ZM42 82.8H31.2C27.888 82.8 25.2 80.112 25.2 76.8V43.2C25.2 39.888 27.888 37.2 31.2 37.2H42V82.8ZM94.8 76.8C94.8 80.112 92.112 82.8 88.8 82.8H43.2V37.2H54.744L57.888 30.912C58.908 28.872 60.96 27.6 63.252 27.6H73.548C75.84 27.6 77.892 28.872 78.912 30.912L82.056 37.2H88.8C92.112 37.2 94.8 39.888 94.8 43.2V76.8ZM68.4 37.2C56.484 37.2 46.8 46.884 46.8 58.8C46.8 70.716 56.484 80.4 68.4 80.4C80.316 80.4 90 70.716 90 58.8C90 46.884 80.316 37.2 68.4 37.2ZM68.4 78C57.816 78 49.2 69.384 49.2 58.8C49.2 48.216 57.816 39.6 68.4 39.6C78.984 39.6 87.6 48.216 87.6 58.8C87.6 69.384 78.984 78 68.4 78ZM68.4 43.2C59.784 43.2 52.8 50.184 52.8 58.8C52.8 67.416 59.784 74.4 68.4 74.4C77.016 74.4 84 67.416 84 58.8C84 50.184 77.016 43.2 68.4 43.2ZM68.4 73.2C60.456 73.2 54 66.744 54 58.8C54 50.856 60.456 44.4 68.4 44.4C76.344 44.4 82.8 50.856 82.8 58.8C82.8 66.744 76.344 73.2 68.4 73.2ZM28.8 45.6C28.8 48.252 30.948 50.4 33.6 50.4C36.252 50.4 38.4 48.252 38.4 45.6C38.4 42.948 36.252 40.8 33.6 40.8C30.948 40.8 28.8 42.948 28.8 45.6ZM33.6 42C35.58 42 37.2 43.62 37.2 45.6C37.2 47.58 35.58 49.2 33.6 49.2C31.62 49.2 30 47.58 30 45.6C30 43.62 31.62 42 33.6 42Z" fill="white"/>
</g>
<defs>
<clipPath id="clip0_1_193">
<rect width="120" height="120" fill="white"/>
</clipPath>
</defs>
</svg>
