<svg width="120" height="120" viewBox="0 0 120 120" fill="none" xmlns="http://www.w3.org/2000/svg">
<path d="M60.072 0C60.048 0 60.024 0 60 0C26.892 0 0.0480643 26.808 6.43003e-05 59.928C-0.0479356 93.06 26.784 119.952 59.928 120C59.952 120 59.976 120 60 120C93.096 120 119.952 93.192 120 60.072C120.048 26.94 93.216 0.048 60.072 0ZM60 117.6H59.928C28.164 117.564 2.36406 91.692 2.40006 59.928C2.43606 28.212 28.284 2.4 60 2.4H60.072C91.836 2.436 117.636 28.308 117.6 60.072C117.564 91.788 91.716 117.6 60 117.6ZM91.2 31.296H21.6V79.296H51.6V84.096H45.6V86.496H67.2V84.096H61.2V79.296H74.4V93.696H98.4V57.696H91.2V31.296ZM58.8 84.096H54V79.296H58.8V84.096ZM74.4 76.896H24V33.696H88.8V57.696H74.4V76.896ZM96 60.096V91.296H76.8V60.096H96Z" fill="white"/>
</svg>
