<svg width="120" height="120" viewBox="0 0 120 120" fill="none" xmlns="http://www.w3.org/2000/svg">
<path d="M60.072 0C60.048 0 60.024 0 60 0C26.892 0 0.0480643 26.808 6.43003e-05 59.928C-0.0479356 93.06 26.784 119.952 59.928 120C59.952 120 59.976 120 60 120C93.096 120 119.952 93.192 120 60.072C120.048 26.94 93.216 0.048 60.072 0ZM60 117.6H59.928C28.164 117.564 2.36406 91.692 2.40006 59.928C2.43606 28.212 28.284 2.4 60 2.4H60.072C91.836 2.436 117.636 28.308 117.6 60.072C117.564 91.788 91.716 117.6 60 117.6ZM97.2 84V43.104H99.6V28.704H20.4V43.104H22.8V84H16.8V86.4H30V92.304H25.2V94.704H66V92.304H61.2V86.4H74.4V92.304H70.8V94.704H92.4V92.304H88.8V86.4H103.2V84H97.2ZM22.8 31.104H97.2V40.704H22.8V31.104ZM58.8 92.304H32.4V73.104H58.8V92.304ZM42 67.104V70.704H34.8V67.104C34.8 65.124 36.42 63.504 38.4 63.504C40.38 63.504 42 65.124 42 67.104ZM34.8 58.704C34.8 56.724 36.42 55.104 38.4 55.104C40.38 55.104 42 56.724 42 58.704C42 60.684 40.38 62.304 38.4 62.304C36.42 62.304 34.8 60.696 34.8 58.704ZM56.4 67.104V70.704H49.2V67.104C49.2 65.124 50.82 63.504 52.8 63.504C54.78 63.504 56.4 65.124 56.4 67.104ZM49.2 58.704C49.2 56.724 50.82 55.104 52.8 55.104C54.78 55.104 56.4 56.724 56.4 58.704C56.4 60.684 54.78 62.304 52.8 62.304C50.82 62.304 49.2 60.696 49.2 58.704ZM86.4 92.304H76.8V59.904H86.4V92.304ZM86.4 58.704H76.8V56.304H86.4V58.704ZM94.8 84H88.8V53.904H74.4V84H61.2V70.704H57.6V67.104C57.6 65.28 56.568 63.72 55.08 62.904C56.58 62.088 57.6 60.528 57.6 58.704C57.6 56.052 55.452 53.904 52.8 53.904C50.148 53.904 48 56.052 48 58.704C48 60.528 49.032 62.088 50.52 62.904C49.02 63.72 48 65.28 48 67.104V70.704H43.2V67.104C43.2 65.28 42.168 63.72 40.68 62.904C42.18 62.088 43.2 60.528 43.2 58.704C43.2 56.052 41.052 53.904 38.4 53.904C35.748 53.904 33.6 56.052 33.6 58.704C33.6 60.528 34.632 62.088 36.12 62.904C34.62 63.72 33.6 65.28 33.6 67.104V70.704H30V84H25.2V43.104H94.8V84Z" fill="white"/>
</svg>
