<svg width="120" height="120" viewBox="0 0 120 120" fill="none" xmlns="http://www.w3.org/2000/svg">
<path d="M93.9 45.912L82.8 57.024V22.8H30V97.2H82.8V77.388L104.088 56.1L93.9 45.912ZM80.4 94.8H32.4V25.2H80.4V59.424L70.224 69.6H39.6V70.8H69.024L63.024 76.8H39.6V78H62.16L60.78 84H39.6V85.2H60.504L59.208 90.792L72.444 87.744L80.4 79.788V94.8ZM64.2 79.848L70.152 85.8L62.412 87.588L64.2 79.848ZM71.412 85.368L64.62 78.576L88.8 54.396L93.048 58.644L68.868 82.824L69.72 83.676L93.9 59.496L95.592 61.188L71.412 85.368ZM89.664 53.556L93.912 49.308L100.704 56.1L96.456 60.348L89.664 53.556ZM60 0C26.868 0 0 26.868 0 60C0 93.132 26.868 120 60 120C93.132 120 120 93.132 120 60C120 26.868 93.132 0 60 0ZM60 117.6C28.236 117.6 2.4 91.764 2.4 60C2.4 28.236 28.236 2.4 60 2.4C91.764 2.4 117.6 28.236 117.6 60C117.6 91.764 91.764 117.6 60 117.6ZM73.2 62.4H39.6V63.6H73.2V62.4ZM61.2 32.4H39.6V54H61.2V32.4ZM60 52.8H40.8V33.6H60V52.8Z" fill="white"/>
</svg>
