<svg width="120" height="120" viewBox="0 0 120 120" fill="none" xmlns="http://www.w3.org/2000/svg">
<path d="M60 0C26.868 0 0 26.868 0 60C0 93.132 26.868 120 60 120C93.132 120 120 93.132 120 60C120 26.868 93.132 0 60 0ZM60 117.6C28.236 117.6 2.4 91.764 2.4 60C2.4 28.236 28.236 2.4 60 2.4C91.764 2.4 117.6 28.236 117.6 60C117.6 91.764 91.764 117.6 60 117.6ZM36 39.6C31.356 39.6 27.6 43.356 27.6 48C27.6 52.644 31.356 56.4 36 56.4C40.644 56.4 44.4 52.644 44.4 48C44.4 43.356 40.644 39.6 36 39.6ZM36 55.2C32.028 55.2 28.8 51.972 28.8 48C28.8 44.028 32.028 40.8 36 40.8C39.972 40.8 43.2 44.028 43.2 48C43.2 51.972 39.972 55.2 36 55.2ZM68.4 41.4H49.2V42.6H68.4V41.4ZM68.4 47.4H49.2V48.6H68.4V47.4ZM94.8 51.6H76.8V37.2C76.8 33.888 74.112 31.2 70.8 31.2H27.6C24.288 31.2 21.6 33.888 21.6 37.2V58.8C21.6 62.112 24.288 64.8 27.6 64.8H28.8V74.64L40.056 64.8H45.6V79.2C45.6 82.512 48.288 85.2 51.6 85.2H82.344L93.6 95.04V85.2H94.8C98.112 85.2 100.8 82.512 100.8 79.2V57.6C100.8 54.288 98.112 51.6 94.8 51.6ZM45.6 57.6V62.4H39.144L31.2 69.36V62.4H27.6C25.62 62.4 24 60.78 24 58.8V37.2C24 35.22 25.62 33.6 27.6 33.6H70.8C72.78 33.6 74.4 35.22 74.4 37.2V51.6H51.6C48.288 51.6 45.6 54.288 45.6 57.6ZM98.4 79.2C98.4 81.18 96.78 82.8 94.8 82.8H91.2V89.76L83.256 82.8H51.6C49.62 82.8 48 81.18 48 79.2V57.6C48 55.62 49.62 54 51.6 54H94.8C96.78 54 98.4 55.62 98.4 57.6V79.2ZM86.4 60C81.756 60 78 63.756 78 68.4C78 73.044 81.756 76.8 86.4 76.8C91.044 76.8 94.8 73.044 94.8 68.4C94.8 63.756 91.044 60 86.4 60ZM86.4 75.6C82.428 75.6 79.2 72.372 79.2 68.4C79.2 64.428 82.428 61.2 86.4 61.2C90.372 61.2 93.6 64.428 93.6 68.4C93.6 72.372 90.372 75.6 86.4 75.6ZM54 63H73.2V61.8H54V63ZM54 69H73.2V67.8H54V69ZM54 75H66V73.8H54V75Z" fill="white"/>
</svg>
